<svg xmlns="http://www.w3.org/2000/svg" xmlns:xlink="http://www.w3.org/1999/xlink" viewBox="0 0 464 412.23"><defs><style>.cls-1{fill:#fff;stroke:#fff;stroke-width:6px;}.cls-1,.cls-2,.cls-3,.cls-5,.cls-8{stroke-miterlimit:10;}.cls-2,.cls-5,.cls-8{fill:none;stroke-width:2px;}.cls-2{stroke:#000;}.cls-3{stroke:#8f6aff;fill:url(#未命名的渐变_31);}.cls-4{font-size:24px;font-family:FZSKBXKK--GBK1-0, FZSongKeBenXiuKai-R-GBK;}.cls-5{stroke:url(#未命名的渐变_255);}.cls-6{fill:url(#未命名的渐变_255-2);}.cls-7{fill:url(#未命名的渐变_74);}.cls-8{stroke:url(#未命名的渐变_174);}.cls-9{fill:url(#未命名的渐变_174-2);}</style><linearGradient id="未命名的渐变_31" x1="168.14" y1="230.68" x2="336.22" y2="230.68" gradientUnits="userSpaceOnUse"><stop offset="0.03" stop-color="#5581ff"/><stop offset="0.11" stop-color="#527df6"/><stop offset="0.24" stop-color="#4a73dc"/><stop offset="0.37" stop-color="#4167be"/><stop offset="0.49" stop-color="#3665c6"/><stop offset="0.67" stop-color="#1e5fd7"/><stop offset="0.99" stop-color="#005b97"/></linearGradient><linearGradient id="未命名的渐变_255" x1="224.12" y1="158.65" x2="276.88" y2="158.65" gradientUnits="userSpaceOnUse"><stop offset="0" stop-color="#ff8a2a"/><stop offset="0.22" stop-color="#ff9333"/><stop offset="0.42" stop-color="#ffa03f"/><stop offset="0.63" stop-color="#bf2500"/><stop offset="0.99" stop-color="#e91300"/></linearGradient><linearGradient id="未命名的渐变_255-2" x1="249.12" y1="240.22" x2="301.88" y2="240.22" xlink:href="#未命名的渐变_255"/><linearGradient id="未命名的渐变_74" x1="173" y1="289.48" x2="209" y2="289.48" gradientUnits="userSpaceOnUse"><stop offset="0" stop-color="#cce0f4"/><stop offset="0.03" stop-color="#cdd7ed"/><stop offset="0.09" stop-color="#d1bddb"/><stop offset="0.16" stop-color="#d694be"/><stop offset="0.25" stop-color="#dd5a95"/><stop offset="0.35" stop-color="#e71161"/><stop offset="0.37" stop-color="#e90055"/><stop offset="0.75" stop-color="#bf0046"/><stop offset="0.99" stop-color="#bf0005"/></linearGradient><linearGradient id="未命名的渐变_174" x1="172.12" y1="283.26" x2="209.88" y2="283.26" gradientUnits="userSpaceOnUse"><stop offset="0" stop-color="#e97d00"/><stop offset="0.16" stop-color="#ee8600"/><stop offset="0.42" stop-color="#fca000"/><stop offset="0.46" stop-color="orange"/><stop offset="0.82" stop-color="#e9002e"/><stop offset="0.99" stop-color="#940014"/></linearGradient><linearGradient id="未命名的渐变_174-2" x1="172.12" y1="312.29" x2="209.88" y2="312.29" xlink:href="#未命名的渐变_174"/></defs><g id="图层_3" data-name="图层 3"><rect class="cls-1" x="3" y="3" width="458" height="406.23" rx="15.41"/></g><g id="图层_1" data-name="图层 1"><line class="cls-2" x1="28.5" y1="390.48" x2="28.5" y2="14.48"/><line class="cls-2" x1="435.5" y1="390.48" x2="28.5" y2="390.48"/><path class="cls-2" d="M406.5,378.5a311.7,311.7,0,0,1-70.28-9.33" transform="translate(-25 -38.02)"/><path class="cls-2" d="M98.5,126.5S126,220.9,202.79,294.15" transform="translate(-25 -38.02)"/><path class="cls-2" d="M168.14,92.19C162.87,80,160.5,72.5,160.5,72.5" transform="translate(-25 -38.02)"/><path class="cls-2" d="M434.5,292.5c-65.58-3.78-117-27.05-156.78-57.15" transform="translate(-25 -38.02)"/><path class="cls-2" d="M252.5,383.5c-21.5-21.75-37.62-53.68-49.71-89.35" transform="translate(-25 -38.02)"/><path class="cls-2" d="M166.5,46.5s0,17.86,1.64,45.69" transform="translate(-25 -38.02)"/><path class="cls-2" d="M384.5,403.5c-18.86-7.07-34.81-19.05-48.28-34.33" transform="translate(-25 -38.02)"/><path class="cls-2" d="M277.72,235.35C260.85,156.79,262.5,81.5,262.5,81.5" transform="translate(-25 -38.02)"/></g><g id="图层_2" data-name="图层 2"><path class="cls-3" d="M336.22,369.17c-55.48-14.07-99.32-42.45-133.43-75-23.36-68.88-31.68-151.69-34.65-202,13.75,31.86,47.2,95.92,109.58,143.16C288.29,284.58,306.13,335.09,336.22,369.17Z" transform="translate(-25 -38.02)"/><text class="cls-4" transform="translate(379.11 234.34)">T1</text><text class="cls-4" transform="translate(359.77 330.77)">T2</text><text class="cls-4" transform="translate(264.92 103.45)">Q1</text><text class="cls-4" transform="translate(135.53 339.28)">Q2</text><line class="cls-5" x1="276" y1="115.98" x2="230.66" y2="201.32"/><path class="cls-6" d="M250,250c.8-6,.93-13.91-.38-19.56l6.79,7.5,10,1.42C261,241.44,254.52,246,250,250Z" transform="translate(-25 -38.02)"/><line class="cls-7" x1="209" y1="255.98" x2="173" y2="322.98"/><line class="cls-8" x1="209" y1="255.98" x2="179.68" y2="310.54"/><polygon class="cls-9" points="173 322.98 175.26 301.6 180.18 309.61 189.58 309.3 173 322.98"/></g></svg>